<svg width="399" height="151" viewBox="0 0 399 151" fill="none" xmlns="http://www.w3.org/2000/svg">
    <g clip-path="url(#clip0_1_28)">
        <rect width="399" height="151" rx="5" fill="white" />
        <path
            d="M13 132C-21.6667 72.1666 17.0999 72.9 79.4998 -13.5001C141 -81.5002 138 -9.99995 255 -61C372 -112 254.95 223.772 166.5 199.5C-48.5 140.5 100.833 156.833 13 132Z"
            fill="#5461F2" />
        <path
            d="M-59.6376 125.823C-103.653 81.0829 -111.669 12.4784 -83.6854 -11.1742C-25.4217 -53.5848 73.297 -175.877 91.5749 -61.2359C105.644 -75.9417 120.752 -91.3457 136.965 -107.473L166.917 -106.55C294.714 -106.55 88.5414 81.4622 33.6284 208.842C-10.3019 310.745 -27.9406 253.435 -80.191 212.504C-90.0296 204.626 -90.591 178.517 -59.6376 125.823Z"
            fill="#4352FF" />
        <path d="M316 -15.5H430.5L473 189.5L360 221L316 -15.5Z" fill="#424FDA" />
        <path
            d="M157.5 186C189.833 140.333 249.1 -103.9 305.5 -101.5C382.5 -51.5 422.5 -75 385 2.49997C310.283 156.915 392 119 347.5 214C299.485 316.504 247.834 255.398 221.5 242C193 227.5 141.833 233.833 157.5 186Z"
            fill="#3644E1" />
    </g>
    <defs>
        <clipPath id="clip0_1_28">
            <rect width="399" height="151" rx="5" fill="white" />
        </clipPath>
    </defs>
</svg>