<svg width="1747" height="1059" viewBox="0 0 1747 1059" fill="none" xmlns="http://www.w3.org/2000/svg">
    <path
        d="M1670.5 557.5C1686.82 361.679 1832.26 289.269 1670.5 148C1520.5 17 1447.02 215.11 1130 148C1098.33 316.167 1087.2 638 1296 580C1557 507.5 1452.5 475.5 1506 482.5C1620.23 497.446 1658.17 551.834 1670.5 557.5Z"
        fill="#433D4D" />
    <path
        d="M567.5 993.5C719.349 940.167 741.5 1096 939 1032C966.5 979.333 1040.7 880.7 1117.5 907.5C1119.89 908.139 1122.38 908.737 1124.96 909.297C1199.06 919.246 1269.39 696.431 1296 580C1087.2 638 1098.33 316.167 1130 148C882 95.5 893.871 -78.67 665.5 41.5001C721.167 186 785.8 488.1 599 540.5C712.333 607.167 906.9 760.9 778.5 842.5C650.1 924.1 584.333 977.166 567.5 993.5Z"
        fill="#26313C" />
    <path
        d="M939 1032C1185.5 952.12 1411 1177 1599 962.5C1589 929 1523 919.5 1490 907.5C1458.46 896.032 1223.46 930.653 1124.96 909.297C1122.48 908.964 1119.99 908.369 1117.5 907.5C1040.7 880.7 966.5 979.333 939 1032Z"
        fill="#203237" />
    <path
        d="M55 634C112.5 727 99.9 970 243.5 934C423 889 465 1029.5 567.5 993.5C584.333 977.166 650.1 924.1 778.5 842.5C906.9 760.9 712.333 607.167 599 540.5C412.2 592.9 158.5 624.667 55 634Z"
        fill="#343845" />
    <path
        d="M0.500061 403C0.5 536 0.500061 567 55 634C158.5 624.667 412.2 592.9 599 540.5C785.8 488.1 721.167 186 665.5 41.5001C427 167 242.127 -63.9462 154.5 108.5C76.5 262 0.500061 288.5 0.500061 403Z"
        fill="#2D3140" />
    <path
        d="M1599 962.5C1826.39 703.062 1656 731.5 1670.5 557.5C1658.17 551.834 1620.23 497.446 1506 482.5C1452.5 475.5 1557 507.5 1296 580C1269.39 696.431 1199.06 919.246 1124.96 909.297C1223.46 930.653 1458.46 896.032 1490 907.5C1523 919.5 1589 929 1599 962.5Z"
        fill="#2C2E37" />
</svg>