<!-- <svg width="100%" height="100%" id="svg" viewBox="0 0 1440 490" xmlns="http://www.w3.org/2000/svg"
    class="transition duration-300 ease-in-out delay-150">
    <path
        d="M 0,500 C 0,500 0,125 0,125 C 75.18790793541737,139.3950532463071 150.37581587083474,153.79010649261423 220,153 C 289.62418412916526,152.20989350738577 353.6846444520784,136.23462727585024 416,121 C 478.3153555479216,105.76537272414977 538.8856063208519,91.2713844039849 607,102 C 675.1143936791481,112.7286155960151 750.772930264514,148.67983510821023 824,143 C 897.227069735486,137.32016489178977 968.0226726210924,90.00927516317417 1033,89 C 1097.9773273789076,87.99072483682583 1157.1363792511163,133.2830642390931 1224,147 C 1290.8636207488837,160.7169357609069 1365.4318103744417,142.85846788045345 1440,125 C 1440,125 1440,500 1440,500 Z"
        stroke="none" stroke-width="0" fill="#22211f" fill-opacity="0.4"
        class="transition-all duration-300 ease-in-out delay-150 path-0"></path>
    <path
        d="M 0,500 C 0,500 0,250 0,250 C 60.53383716935761,244.58467880453452 121.06767433871522,239.16935760906904 180,229 C 238.93232566128478,218.83064239093096 296.2631398144967,203.90724836825837 376,221 C 455.7368601855033,238.09275163174163 557.8797664032978,287.2016489178976 631,282 C 704.1202335967022,276.7983510821024 748.2177945723118,217.28615596015115 811,214 C 873.7822054276882,210.71384403984885 955.2490553074547,263.65372724149773 1027,279 C 1098.7509446925453,294.34627275850227 1160.78598419787,272.0989350738578 1228,261 C 1295.21401580213,249.90106492614223 1367.6070079010651,249.9505324630711 1440,250 C 1440,250 1440,500 1440,500 Z"
        stroke="none" stroke-width="0" fill="#22211f" fill-opacity="0.53"
        class="transition-all duration-300 ease-in-out delay-150 path-1"></path>
    <path
        d="M 0,500 C 0,500 0,375 0,375 C 47.0216420474064,383.60048093438684 94.0432840948128,392.2009618687736 174,398 C 253.9567159051872,403.7990381312264 366.84850566815527,406.7966334592923 435,413 C 503.15149433184473,419.2033665407077 526.5626932325662,428.61250429405703 587,407 C 647.4373067674338,385.38749570594297 744.9007214015802,332.75334936447956 831,337 C 917.0992785984198,341.24665063552044 991.8344211611131,402.3740982480247 1065,416 C 1138.1655788388869,429.6259017519753 1209.7615939539678,395.7502576434215 1272,381 C 1334.2384060460322,366.2497423565785 1387.119203023016,370.62487117828925 1440,375 C 1440,375 1440,500 1440,500 Z"
        stroke="none" stroke-width="0" fill="#22211f" fill-opacity="1"
        class="transition-all duration-300 ease-in-out delay-150 path-2"></path>
</svg> -->

<svg width="100%" height="100%" id="svg" viewBox="0 0 1440 390" xmlns="http://www.w3.org/2000/svg"
    class="transition duration-300 ease-in-out delay-150">
    <path
        d="M 0,400 C 0,400 0,200 0,200 C 137.86666666666667,232.93333333333334 275.73333333333335,265.8666666666667 419,259 C 562.2666666666667,252.13333333333335 710.9333333333334,205.46666666666664 882,189 C 1053.0666666666666,172.53333333333336 1246.5333333333333,186.26666666666668 1440,200 C 1440,200 1440,400 1440,400 Z"
        stroke="none" stroke-width="0" fill="#22211f" fill-opacity="1"
        class="transition-all duration-300 ease-in-out delay-150 path-0"></path>
</svg>