<svg id="wave" style="transition: 0.3s" viewBox="0 0 1440 210" version="1.1"
    xmlns="http://www.w3.org/2000/svg">
    <defs>
        <linearGradient id="sw-gradient-0" x1="0" x2="0" y1="1" y2="0">
            <stop stop-color="rgba(25, 25, 25, 1)" offset="0%"></stop>
            <stop stop-color="rgba(25, 25, 25, 1)" offset="100%"></stop>
        </linearGradient>
    </defs>
    <path style="transform:translate(0, 0px); opacity:1" fill="url(#sw-gradient-0)"
        d="M0,189L21.8,175C43.6,161,87,133,131,108.5C174.5,84,218,63,262,63C305.5,63,349,84,393,87.5C436.4,91,480,77,524,59.5C567.3,42,611,21,655,10.5C698.2,0,742,0,785,24.5C829.1,49,873,98,916,112C960,126,1004,105,1047,84C1090.9,63,1135,42,1178,35C1221.8,28,1265,35,1309,38.5C1352.7,42,1396,42,1440,49C1483.6,56,1527,70,1571,73.5C1614.5,77,1658,70,1702,66.5C1745.5,63,1789,63,1833,77C1876.4,91,1920,119,1964,112C2007.3,105,2051,63,2095,52.5C2138.2,42,2182,63,2225,80.5C2269.1,98,2313,112,2356,101.5C2400,91,2444,56,2487,45.5C2530.9,35,2575,49,2618,45.5C2661.8,42,2705,21,2749,42C2792.7,63,2836,126,2880,129.5C2923.6,133,2967,77,3011,56C3054.5,35,3098,49,3120,56L3141.8,63L3141.8,210L3120,210C3098.2,210,3055,210,3011,210C2967.3,210,2924,210,2880,210C2836.4,210,2793,210,2749,210C2705.5,210,2662,210,2618,210C2574.5,210,2531,210,2487,210C2443.6,210,2400,210,2356,210C2312.7,210,2269,210,2225,210C2181.8,210,2138,210,2095,210C2050.9,210,2007,210,1964,210C1920,210,1876,210,1833,210C1789.1,210,1745,210,1702,210C1658.2,210,1615,210,1571,210C1527.3,210,1484,210,1440,210C1396.4,210,1353,210,1309,210C1265.5,210,1222,210,1178,210C1134.5,210,1091,210,1047,210C1003.6,210,960,210,916,210C872.7,210,829,210,785,210C741.8,210,698,210,655,210C610.9,210,567,210,524,210C480,210,436,210,393,210C349.1,210,305,210,262,210C218.2,210,175,210,131,210C87.3,210,44,210,22,210L0,210Z">
    </path>
</svg>