<svg width="128" height="128" viewBox="0 0 128 128" fill="none" xmlns="http://www.w3.org/2000/svg">
    <g clip-path="url(#clip0_1203_74)">
        <path fill-rule="evenodd" clip-rule="evenodd"
            d="M0 64C0 28.6538 28.6538 0 64 0C99.3466 0 128 28.6538 128 64C128 99.3466 99.3466 128 64 128C28.6538 128 0 99.3466 0 64ZM64 12.8C35.723 12.8 12.8 35.723 12.8 64C12.8 92.2771 35.723 115.2 64 115.2C92.2771 115.2 115.2 92.2771 115.2 64C115.2 35.723 92.2771 12.8 64 12.8Z"
            fill="#BABCBF" />
        <path fill-rule="evenodd" clip-rule="evenodd"
            d="M44.8001 72C46.7442 72 48.5831 72.8838 49.7976 74.4019L54.4001 80.1549L59.0025 74.4019C60.217 72.8838 62.0559 72 64.0001 72C65.9444 72 67.7831 72.8838 68.9978 74.4019L73.6001 80.1549L78.2023 74.4019C79.417 72.8838 81.2557 72 83.2001 72C85.1444 72 86.9831 72.8838 88.1978 74.4019L97.7978 86.4019C100.006 89.1622 99.5585 93.1898 96.7981 95.3978C94.0378 97.6058 90.0103 97.1584 87.8023 94.3981L83.2001 88.6451L78.5978 94.3981C77.3831 95.9162 75.5444 96.8 73.6001 96.8C71.6557 96.8 69.817 95.9162 68.6023 94.3981L64.0001 88.6451L59.3976 94.3981C58.1831 95.9162 56.3442 96.8 54.4001 96.8C52.4559 96.8 50.617 95.9162 49.4025 94.3981L44.8001 88.6451L40.1976 94.3981C37.9896 97.1584 33.9621 97.6058 31.202 95.3978C28.4419 93.1898 27.9944 89.1622 30.2025 86.4019L39.8025 74.4019C41.017 72.8838 42.8559 72 44.8001 72Z"
            fill="#BABCBF" />
        <path
            d="M42.4 59.2C46.3764 59.2 49.6 55.9764 49.6 52C49.6 48.0236 46.3764 44.8 42.4 44.8C38.4235 44.8 35.2 48.0236 35.2 52C35.2 55.9764 38.4235 59.2 42.4 59.2Z"
            fill="#BABCBF" />
        <path
            d="M85.5999 59.2C89.5762 59.2 92.7999 55.9764 92.7999 52C92.7999 48.0236 89.5762 44.8 85.5999 44.8C81.6236 44.8 78.3999 48.0236 78.3999 52C78.3999 55.9764 81.6236 59.2 85.5999 59.2Z"
            fill="#BABCBF" />
    </g>
    <defs>
        <clipPath id="clip0_1203_74">
            <rect width="128" height="128" fill="white" />
        </clipPath>
    </defs>
</svg>