<svg width="128" height="128" viewBox="0 0 128 128" fill="none" xmlns="http://www.w3.org/2000/svg">
    <path
        d="M94.2328 67.8007L73.9654 56.7087C72.8281 56.0742 71.9006 55.1214 71.2967 53.9673L60.2074 33.7671C59.9742 33.3421 59.631 32.9875 59.2139 32.7406C58.7968 32.4936 58.321 32.3633 57.8362 32.3633C57.3514 32.3633 56.8757 32.4936 56.4585 32.7406C56.0414 32.9875 55.6982 33.3421 55.465 33.7671L44.3576 53.9673C43.7426 55.0947 42.8162 56.0214 41.689 56.6366L21.4035 67.8007C20.9786 68.034 20.6241 68.3772 20.3772 68.7944C20.1302 69.2117 20 69.6876 20 70.1725C20 70.6573 20.1302 71.1332 20.3772 71.5505C20.6241 71.9677 20.9786 72.3109 21.4035 72.5442L41.689 83.636C42.815 84.2528 43.741 85.1792 44.3576 86.3056L55.447 106.596C55.6802 107.021 56.0234 107.375 56.4405 107.622C56.8576 107.87 57.3334 108 57.8182 108C58.3029 108 58.7787 107.87 59.1958 107.622C59.613 107.375 59.9562 107.021 60.1894 106.596L71.2787 86.3056C71.8946 85.1784 72.8207 84.252 73.9474 83.636L94.2328 72.5442C94.6576 72.3109 95.012 71.9677 95.2592 71.5505C95.5064 71.1332 95.636 70.6573 95.636 70.1725C95.636 69.6876 95.5064 69.2117 95.2592 68.7944C95.012 68.3772 94.6576 68.034 94.2328 67.8007Z"
        fill="#AAB0F9" />
    <path
        d="M122.549 20.5662L113.194 15.4351C112.918 15.2729 112.69 15.039 112.536 14.7582L107.414 5.38674C107.184 4.96686 106.846 4.61662 106.434 4.37267C106.022 4.12871 105.553 4 105.075 4C104.597 4 104.127 4.12871 103.716 4.37267C103.305 4.61662 102.966 4.96686 102.736 5.38674L97.5968 14.7759C97.4368 15.0591 97.2032 15.2933 96.9208 15.453L87.5656 20.5841C87.1464 20.8145 86.7968 21.1535 86.5536 21.5657C86.3104 21.9778 86.1816 22.4479 86.1816 22.9269C86.1816 23.4058 86.3104 23.876 86.5536 24.2882C86.7968 24.7003 87.1464 25.0394 87.5656 25.2698L96.9384 30.4009C97.216 30.553 97.4448 30.7818 97.5968 31.0601L102.718 40.4314C102.949 40.8513 103.287 41.2015 103.698 41.4455C104.11 41.6894 104.579 41.8182 105.058 41.8182C105.535 41.8182 106.005 41.6894 106.416 41.4455C106.827 41.2015 107.166 40.8513 107.396 40.4314L112.518 31.0601C112.673 30.7733 112.907 30.538 113.194 30.383L122.549 25.3232C122.986 25.099 123.352 24.7582 123.608 24.3386C123.864 23.9189 124 23.4366 124 22.9447C124 22.4529 123.864 21.9706 123.608 21.5509C123.352 21.1312 122.986 20.7905 122.549 20.5662Z"
        fill="#AAB0F9" />
</svg>