<svg id="wave" style="transform:rotate(0deg); transition: 0.3s" viewBox="0 0 1440 130" version="1.1"
    xmlns="http://www.w3.org/2000/svg">
    <defs>
        <linearGradient id="sw-gradient-0" x1="0" x2="0" y1="1" y2="0">
            <stop stop-color="rgba(25, 25, 25, 1)" offset="0%"></stop>
            <stop stop-color="rgba(25, 25, 25, 1)" offset="100%"></stop>
        </linearGradient>
    </defs>
    <path style="transform:translate(0, 0px); opacity:1" fill="url(#sw-gradient-0)"
        d="M0,91L30,82.3C60,74,120,56,180,54.2C240,52,300,65,360,62.8C420,61,480,43,540,36.8C600,30,660,35,720,49.8C780,65,840,91,900,86.7C960,82,1020,48,1080,32.5C1140,17,1200,22,1260,34.7C1320,48,1380,69,1440,80.2C1500,91,1560,91,1620,91C1680,91,1740,91,1800,95.3C1860,100,1920,108,1980,99.7C2040,91,2100,65,2160,60.7C2220,56,2280,74,2340,69.3C2400,65,2460,39,2520,34.7C2580,30,2640,48,2700,62.8C2760,78,2820,91,2880,80.2C2940,69,3000,35,3060,19.5C3120,4,3180,9,3240,21.7C3300,35,3360,56,3420,65C3480,74,3540,69,3600,56.3C3660,43,3720,22,3780,13C3840,4,3900,9,3960,26C4020,43,4080,74,4140,71.5C4200,69,4260,35,4290,17.3L4320,0L4320,130L4290,130C4260,130,4200,130,4140,130C4080,130,4020,130,3960,130C3900,130,3840,130,3780,130C3720,130,3660,130,3600,130C3540,130,3480,130,3420,130C3360,130,3300,130,3240,130C3180,130,3120,130,3060,130C3000,130,2940,130,2880,130C2820,130,2760,130,2700,130C2640,130,2580,130,2520,130C2460,130,2400,130,2340,130C2280,130,2220,130,2160,130C2100,130,2040,130,1980,130C1920,130,1860,130,1800,130C1740,130,1680,130,1620,130C1560,130,1500,130,1440,130C1380,130,1320,130,1260,130C1200,130,1140,130,1080,130C1020,130,960,130,900,130C840,130,780,130,720,130C660,130,600,130,540,130C480,130,420,130,360,130C300,130,240,130,180,130C120,130,60,130,30,130L0,130Z">
    </path>
</svg>